<?xml version="1.0" encoding="utf-8"?>
<!-- Generator: Adobe Illustrator 15.0.0, SVG Export Plug-In . SVG Version: 6.00 Build 0)  -->
<!DOCTYPE svg PUBLIC "-//W3C//DTD SVG 1.1//EN" "http://www.w3.org/Graphics/SVG/1.1/DTD/svg11.dtd">
<svg version="1.1" id="Layer_1" xmlns="http://www.w3.org/2000/svg" xmlns:xlink="http://www.w3.org/1999/xlink" x="0px" y="0px"
	 width="164.734px" height="59.184px" viewBox="0 0 164.734 59.184" enable-background="new 0 0 164.734 59.184"
	 xml:space="preserve">
<g>
	<path fill="#231F20" d="M17.99,38.224c0,4.422-0.362,4.724-4.783,4.724v1.697h17.02c12.479,0,13.936-8.603,13.936-12.663
		c0-7.448-6.544-10.778-12.36-10.96V20.96c9.51-1.817,10.176-8.482,10.176-10.904c0-3.15-1.391-5.755-3.632-7.452
		C35.5,0.423,32.227,0,27.442,0H13.207v1.693c4.421,0,4.783,0.244,4.783,4.728V38.224z M28.17,2.179
		c7.629,0,9.752,4.122,9.752,8.361c0,3.999-1.879,9.571-11.27,9.571h-4.722V4.178c0-1.512,0.181-1.999,1.695-1.999H28.17z
		 M27.985,22.354c4.06,0,6.967,0.846,8.905,2.481c2,1.696,3.15,4.119,3.15,7.084c0,9.272-5.874,10.481-10.175,10.481h-5.693
		c-1.879,0-2.241-0.423-2.241-3.026V22.354H27.985z"/>
	<path fill="#231F20" d="M9.2,38.224c0,4.422-4.778,4.914-9.2,4.914v1.507h13.207v-2.374V0H9.083v34.18L9.2,39.15"/>
	<g>
		<path fill="#231F20" d="M67.982,34.892c0,1.467-0.297,2.747-0.891,3.836c-0.594,1.09-1.385,2.002-2.374,2.736
			c-0.989,0.733-2.104,1.285-3.343,1.652c-1.241,0.366-2.521,0.549-3.838,0.549c-1.32,0-2.606-0.183-3.859-0.549
			c-1.253-0.367-2.374-0.896-3.363-1.585c-0.989-0.687-1.788-1.529-2.394-2.529c-0.607-0.997-0.91-2.128-0.91-3.389V23.707
			c0-1.193-0.119-1.982-0.356-2.375c-0.237-0.389-0.66-0.585-1.267-0.585h-0.396v-0.963h8.706v0.963H52.51
			c-0.607,0-1.029,0.196-1.267,0.585c-0.237,0.393-0.356,1.182-0.356,2.375v11.355c0,1.125,0.218,2.094,0.653,2.909
			c0.436,0.812,1.009,1.484,1.722,2.011c0.712,0.529,1.529,0.913,2.453,1.153c0.924,0.241,1.86,0.361,2.811,0.361
			c0.949,0,1.873-0.12,2.769-0.361c0.897-0.24,1.695-0.624,2.395-1.153c0.699-0.526,1.253-1.199,1.662-2.011
			c0.409-0.815,0.613-1.784,0.613-2.909V24.947c0-1.447-0.25-2.506-0.751-3.184c-0.501-0.678-1.372-1.017-2.611-1.017h-0.673v-0.963
			h8.745v0.963h-0.396c-0.159,0-0.37,0.048-0.633,0.14c-0.264,0.09-0.521,0.258-0.771,0.499c-0.251,0.24-0.462,0.585-0.633,1.03
			c-0.172,0.448-0.258,1.017-0.258,1.705V34.892z"/>
		<path fill="#231F20" d="M77.123,21.47c-1.082,0.207-1.926,0.513-2.532,0.913c-0.608,0.402-1.016,0.912-1.227,1.531
			c-0.212,0.619-0.317,1.342-0.317,2.168h-1.107l0.197-6.298h22.318l0.199,6.298h-1.109c0-0.826-0.105-1.549-0.316-2.168
			s-0.619-1.129-1.227-1.531c-0.607-0.4-1.451-0.706-2.532-0.913c-1.081-0.205-2.493-0.319-4.233-0.342v18.064
			c0,1.193,0.118,1.982,0.355,2.375c0.237,0.389,0.659,0.585,1.266,0.585h0.396v0.964h-7.914v-0.964h0.396
			c0.606,0,1.029-0.196,1.266-0.585c0.237-0.393,0.356-1.182,0.356-2.375V21.128C79.616,21.15,78.205,21.265,77.123,21.47z"/>
		<path fill="#231F20" d="M98.254,21.332c-0.237-0.389-0.66-0.585-1.267-0.585h-0.396v-0.963h8.707v0.963h-1.068
			c-0.607,0-1.023,0.196-1.247,0.588c-0.224,0.39-0.351,1.182-0.376,2.378c-0.079,5.169-0.119,10.338-0.119,15.511
			c0,0.481,0.047,0.885,0.139,1.204c0.092,0.321,0.27,0.582,0.535,0.775c0.263,0.196,0.646,0.333,1.146,0.414
			c0.501,0.082,1.161,0.121,1.979,0.121c1.768,0,3.232-0.099,4.393-0.291c1.16-0.196,2.084-0.524,2.771-0.983
			c0.687-0.456,1.187-1.069,1.503-1.84c0.316-0.768,0.501-1.725,0.555-2.873h1.107l-0.475,7.365H96.591v-0.964h0.396
			c0.606,0,1.029-0.196,1.267-0.585c0.237-0.393,0.355-1.182,0.355-2.375V23.707C98.61,22.514,98.492,21.725,98.254,21.332z"/>
		<path fill="#231F20" d="M127.22,30.521c0.658,0,1.246-0.034,1.76-0.104c0.516-0.066,0.951-0.224,1.307-0.465
			c0.355-0.24,0.633-0.594,0.83-1.063c0.199-0.471,0.297-1.109,0.297-1.91h1.109v8.396h-1.109c0-0.642-0.046-1.193-0.139-1.652
			c-0.092-0.459-0.29-0.832-0.592-1.117c-0.305-0.288-0.727-0.501-1.268-0.639c-0.541-0.137-1.273-0.204-2.195-0.204h-3.166v7.527
			c0,0.481,0.045,0.885,0.139,1.207c0.092,0.321,0.296,0.588,0.613,0.795c0.316,0.207,0.758,0.355,1.325,0.448
			c0.567,0.092,1.326,0.137,2.275,0.137c1.636,0,3.007-0.104,4.116-0.308c1.107-0.207,2.004-0.541,2.69-1
			c0.686-0.456,1.2-1.042,1.543-1.753s0.567-1.571,0.673-2.582h1.107l-0.316,6.884h-20.062v-0.964h0.396
			c0.605,0,1.027-0.196,1.266-0.585c0.238-0.393,0.355-1.182,0.355-2.375V23.536c0-0.597-0.025-1.078-0.078-1.445
			c-0.054-0.366-0.146-0.649-0.277-0.843c-0.132-0.195-0.304-0.327-0.514-0.397c-0.212-0.067-0.463-0.104-0.752-0.104h-0.396v-0.963
			h18.876l0.158,6.057h-1.108c0-1.652-0.534-2.845-1.603-3.579c-1.068-0.733-2.883-1.101-5.44-1.101h-4.789
			c-0.053,1.582-0.099,3.147-0.139,4.696c-0.039,1.549-0.059,3.103-0.059,4.663H127.22z"/>
		<path fill="#231F20" d="M146.61,39.192c0,1.193,0.118,1.982,0.355,2.375c0.238,0.389,0.659,0.585,1.267,0.585h0.673v0.964h-8.191
			v-0.964h0.396c0.607,0,1.029-0.196,1.268-0.585c0.236-0.393,0.355-1.182,0.355-2.375V23.707c0-1.193-0.119-1.982-0.355-2.375
			c-0.238-0.389-0.66-0.585-1.268-0.585h-0.396v-0.963h10.843c1.529,0,2.869,0.162,4.016,0.481c1.148,0.322,2.11,0.77,2.889,1.344
			c0.779,0.571,1.365,1.249,1.762,2.03c0.396,0.778,0.594,1.627,0.594,2.546c0,1.537-0.627,2.845-1.879,3.923
			c-1.255,1.078-3.015,1.767-5.283,2.063c0.342,0.46,0.752,0.98,1.227,1.565c0.475,0.586,0.988,1.193,1.543,1.823
			c0.555,0.633,1.135,1.269,1.74,1.91c0.607,0.644,1.201,1.263,1.781,1.859c0.606,0.618,1.129,1.105,1.564,1.461
			c0.436,0.356,0.822,0.625,1.166,0.81c0.343,0.185,0.674,0.312,0.99,0.378c0.316,0.07,0.672,0.126,1.068,0.174v0.964h-6.094
			c-0.688-0.689-1.413-1.451-2.178-2.291c-0.766-0.835-1.53-1.708-2.295-2.612c-0.765-0.908-1.53-1.832-2.295-2.772
			c-0.766-0.938-1.504-1.868-2.216-2.786h-0.831c-0.369,0-0.752-0.012-1.147-0.034s-0.752-0.059-1.068-0.104V39.192z M148.093,31.45
			c0.461,0.021,0.916,0.033,1.365,0.033c2.321,0,4.069-0.4,5.244-1.198c1.174-0.801,1.76-2.092,1.76-3.876
			c0-0.733-0.146-1.42-0.436-2.059c-0.289-0.641-0.73-1.195-1.324-1.663s-1.346-0.84-2.256-1.114s-1.998-0.412-3.265-0.412
			c-0.448,0-0.845,0.018-1.188,0.051c-0.343,0.036-0.739,0.075-1.188,0.12c-0.054,1.624-0.099,3.271-0.139,4.94
			c-0.039,1.669-0.059,3.36-0.059,5.073C147.137,31.394,147.632,31.428,148.093,31.45z"/>
	</g>
	<g>
		<path fill="#231F20" d="M16.148,56.946c0,0.597,0.06,0.991,0.178,1.188c0.119,0.193,0.33,0.291,0.633,0.291h0.514v0.481H13.2
			v-0.481h0.197c0.304,0,0.515-0.098,0.634-0.291c0.118-0.196,0.178-0.591,0.178-1.188v-7.743c0-0.596-0.06-0.991-0.178-1.187
			c-0.119-0.196-0.33-0.292-0.634-0.292H13.2v-0.481h4.887c0.87,0,1.625,0.081,2.266,0.249c0.639,0.166,1.169,0.403,1.592,0.715
			c0.422,0.308,0.739,0.68,0.95,1.117c0.21,0.437,0.317,0.918,0.317,1.444c0,0.482-0.123,0.93-0.366,1.342
			c-0.244,0.414-0.581,0.77-1.009,1.066c-0.429,0.3-0.937,0.535-1.523,0.706c-0.587,0.174-1.23,0.258-1.929,0.258
			c-0.356,0-0.722-0.022-1.098-0.067c-0.376-0.048-0.756-0.12-1.138-0.224V56.946z M17.632,53.521c0.421,0,0.834-0.042,1.236-0.129
			c0.402-0.084,0.758-0.229,1.068-0.437c0.31-0.204,0.561-0.484,0.752-0.84c0.191-0.356,0.287-0.807,0.287-1.355
			c0-0.4-0.066-0.773-0.198-1.114c-0.131-0.345-0.339-0.645-0.623-0.902s-0.646-0.456-1.088-0.599
			c-0.442-0.144-0.979-0.216-1.613-0.216c-0.409,0-0.812,0.036-1.207,0.104c-0.027,0.882-0.05,1.767-0.069,2.66
			c-0.02,0.891-0.029,1.789-0.029,2.691C16.649,53.477,17.143,53.521,17.632,53.521z"/>
		<path fill="#231F20" d="M35.735,56.946c0,0.597,0.06,0.991,0.179,1.188c0.118,0.193,0.329,0.291,0.633,0.291h0.198v0.481h-3.958
			v-0.481h0.198c0.303,0,0.514-0.098,0.633-0.291c0.119-0.196,0.178-0.591,0.178-1.188V53.23h-6.153v3.716
			c0,0.597,0.06,0.991,0.178,1.188c0.119,0.193,0.33,0.291,0.634,0.291h0.197v0.481h-3.957v-0.481h0.198
			c0.304,0,0.514-0.098,0.633-0.291c0.118-0.196,0.178-0.591,0.178-1.188v-7.743c0-0.596-0.06-0.991-0.178-1.187
			c-0.119-0.196-0.33-0.292-0.633-0.292h-0.198v-0.481h4.017v0.481h-0.198c-0.303,0-0.511,0.096-0.623,0.292
			c-0.112,0.195-0.175,0.591-0.188,1.187c-0.014,0.574-0.023,1.141-0.03,1.694c-0.006,0.558-0.01,1.117-0.01,1.678h6.133v-3.372
			c0-0.596-0.059-0.991-0.178-1.187c-0.119-0.196-0.33-0.292-0.633-0.292h-0.198v-0.481h4.016v0.481h-0.197
			c-0.304,0-0.512,0.096-0.624,0.292c-0.112,0.195-0.175,0.591-0.188,1.187C35.755,51.785,35.735,54.364,35.735,56.946z"/>
		<path fill="#231F20" d="M47.686,47.344c0.765,0.255,1.448,0.636,2.048,1.146c0.6,0.51,1.084,1.143,1.454,1.894
			c0.369,0.75,0.554,1.627,0.554,2.623c0,0.986-0.178,1.865-0.534,2.633s-0.831,1.414-1.425,1.935
			c-0.594,0.524-1.286,0.922-2.077,1.196c-0.792,0.274-1.623,0.414-2.493,0.414c-0.871,0-1.706-0.129-2.503-0.381
			c-0.798-0.252-1.497-0.627-2.097-1.125c-0.601-0.499-1.079-1.123-1.434-1.877c-0.356-0.75-0.535-1.624-0.535-2.624
			c0-0.789,0.148-1.56,0.445-2.305c0.297-0.744,0.729-1.408,1.296-1.987c0.566-0.577,1.266-1.042,2.097-1.393
			c0.831-0.35,1.781-0.526,2.849-0.526C46.135,46.966,46.92,47.092,47.686,47.344z M43.254,47.982
			c-0.528,0.264-0.96,0.636-1.296,1.112c-0.336,0.476-0.587,1.044-0.752,1.705c-0.165,0.661-0.247,1.389-0.247,2.182
			c0,0.896,0.115,1.691,0.346,2.386c0.23,0.694,0.547,1.279,0.95,1.759c0.402,0.476,0.874,0.834,1.415,1.075
			c0.541,0.24,1.115,0.361,1.722,0.361c0.541,0,1.055-0.084,1.543-0.258c0.488-0.171,0.917-0.465,1.286-0.88
			c0.37-0.411,0.663-0.96,0.881-1.644c0.218-0.683,0.326-1.537,0.326-2.56c0-0.873-0.092-1.657-0.276-2.352
			c-0.185-0.695-0.462-1.288-0.831-1.775c-0.37-0.487-0.818-0.863-1.346-1.12c-0.528-0.258-1.141-0.39-1.839-0.39
			C44.408,47.585,43.781,47.72,43.254,47.982z"/>
		<path fill="#231F20" d="M55.225,48.086c-0.542,0.104-0.963,0.255-1.267,0.454c-0.304,0.201-0.508,0.456-0.613,0.768
			c-0.106,0.308-0.158,0.672-0.158,1.083h-0.555l0.1-3.147h11.159l0.099,3.147h-0.554c0-0.411-0.053-0.775-0.159-1.083
			c-0.106-0.312-0.31-0.566-0.613-0.768c-0.303-0.199-0.726-0.351-1.266-0.454c-0.541-0.104-1.247-0.162-2.118-0.173v9.033
			c0,0.597,0.06,0.991,0.179,1.188c0.118,0.193,0.33,0.291,0.633,0.291h0.198v0.481h-3.958v-0.481h0.198
			c0.303,0,0.514-0.098,0.633-0.291c0.119-0.196,0.178-0.591,0.178-1.188v-9.033C56.471,47.924,55.765,47.982,55.225,48.086z"/>
		<path fill="#231F20" d="M73.842,47.344c0.765,0.255,1.448,0.636,2.048,1.146c0.6,0.51,1.084,1.143,1.454,1.894
			c0.369,0.75,0.554,1.627,0.554,2.623c0,0.986-0.178,1.865-0.534,2.633s-0.831,1.414-1.425,1.935
			c-0.594,0.524-1.286,0.922-2.077,1.196c-0.792,0.274-1.623,0.414-2.493,0.414c-0.871,0-1.706-0.129-2.503-0.381
			c-0.798-0.252-1.497-0.627-2.097-1.125c-0.601-0.499-1.079-1.123-1.435-1.877c-0.356-0.75-0.535-1.624-0.535-2.624
			c0-0.789,0.148-1.56,0.445-2.305c0.297-0.744,0.729-1.408,1.297-1.987c0.566-0.577,1.266-1.042,2.097-1.393
			c0.831-0.35,1.781-0.526,2.849-0.526C72.292,46.966,73.077,47.092,73.842,47.344z M69.411,47.982
			c-0.528,0.264-0.96,0.636-1.296,1.112c-0.336,0.476-0.587,1.044-0.752,1.705c-0.165,0.661-0.247,1.389-0.247,2.182
			c0,0.896,0.115,1.691,0.346,2.386c0.23,0.694,0.547,1.279,0.95,1.759c0.402,0.476,0.874,0.834,1.415,1.075
			c0.541,0.24,1.115,0.361,1.722,0.361c0.541,0,1.055-0.084,1.543-0.258c0.488-0.171,0.917-0.465,1.286-0.88
			c0.37-0.411,0.663-0.96,0.88-1.644c0.218-0.683,0.326-1.537,0.326-2.56c0-0.873-0.092-1.657-0.276-2.352
			c-0.185-0.695-0.462-1.288-0.831-1.775c-0.37-0.487-0.818-0.863-1.345-1.12c-0.528-0.258-1.141-0.39-1.84-0.39
			C70.564,47.585,69.938,47.72,69.411,47.982z"/>
		<path fill="#231F20" d="M87.968,47.045c0.41,0.05,0.766,0.108,1.068,0.171c0.304,0.063,0.561,0.12,0.771,0.173
			c0.212,0.051,0.391,0.076,0.534,0.076v3.699c0,0.036-0.028,0.064-0.087,0.087c-0.062,0.022-0.123,0.033-0.189,0.033
			c-0.065,0-0.129-0.011-0.188-0.033s-0.089-0.051-0.089-0.087c-0.065-1.157-0.408-2.02-1.027-2.588
			c-0.621-0.568-1.412-0.852-2.375-0.852c-0.712,0-1.365,0.132-1.959,0.396c-0.594,0.263-1.108,0.621-1.543,1.075
			c-0.436,0.453-0.775,0.982-1.02,1.591c-0.244,0.607-0.366,1.257-0.366,1.946c0,0.996,0.155,1.848,0.465,2.554
			c0.31,0.705,0.709,1.285,1.197,1.735c0.488,0.454,1.036,0.784,1.643,0.992c0.606,0.204,1.214,0.308,1.82,0.308
			c0.382,0,0.699-0.028,0.95-0.084c0.25-0.059,0.447-0.135,0.594-0.232c0.145-0.098,0.243-0.207,0.297-0.327
			c0.052-0.121,0.078-0.244,0.078-0.37v-2.083c0-0.241-0.02-0.432-0.059-0.574c-0.041-0.146-0.129-0.252-0.268-0.328
			c-0.139-0.075-0.34-0.123-0.604-0.146c-0.264-0.025-0.621-0.036-1.068-0.036v-0.481h5.125v0.481c-0.252,0-0.457,0.02-0.613,0.053
			c-0.16,0.034-0.279,0.109-0.367,0.225c-0.086,0.114-0.143,0.277-0.168,0.49c-0.027,0.212-0.039,0.501-0.039,0.867v2.255
			c-0.646,0.345-1.393,0.621-2.236,0.834s-1.813,0.319-2.908,0.319c-0.91,0-1.729-0.154-2.453-0.456
			c-0.726-0.306-1.343-0.717-1.85-1.241c-0.508-0.521-0.9-1.122-1.178-1.806c-0.276-0.681-0.415-1.4-0.415-2.159
			c0-0.778,0.165-1.56,0.495-2.338c0.329-0.781,0.805-1.484,1.424-2.108c0.62-0.625,1.369-1.132,2.246-1.523
			c0.878-0.39,1.856-0.586,2.938-0.586C87.085,46.966,87.56,46.994,87.968,47.045z"/>
		<path fill="#231F20" d="M96.476,56.946c0,0.597,0.061,0.991,0.18,1.188c0.117,0.193,0.328,0.291,0.633,0.291h0.336v0.481h-4.096
			v-0.481h0.197c0.305,0,0.516-0.098,0.633-0.291c0.119-0.196,0.18-0.591,0.18-1.188v-7.743c0-0.596-0.061-0.991-0.18-1.187
			c-0.117-0.196-0.328-0.292-0.633-0.292h-0.197v-0.481h5.422c0.764,0,1.434,0.079,2.008,0.241c0.574,0.159,1.055,0.384,1.444,0.669
			c0.388,0.288,0.683,0.627,0.881,1.017c0.197,0.39,0.297,0.814,0.297,1.271c0,0.77-0.313,1.423-0.94,1.963
			c-0.627,0.538-1.507,0.882-2.641,1.03c0.17,0.229,0.375,0.493,0.613,0.784c0.236,0.291,0.494,0.597,0.771,0.913
			c0.277,0.313,0.566,0.633,0.87,0.955c0.303,0.319,0.6,0.63,0.891,0.927c0.303,0.311,0.563,0.555,0.781,0.733
			c0.218,0.177,0.411,0.311,0.584,0.403c0.171,0.093,0.336,0.154,0.494,0.188c0.158,0.037,0.336,0.064,0.535,0.087v0.481h-3.048
			c-0.344-0.344-0.706-0.725-1.088-1.143c-0.383-0.42-0.766-0.854-1.148-1.308c-0.383-0.453-0.765-0.915-1.146-1.386
			c-0.383-0.471-0.752-0.936-1.107-1.395h-0.416c-0.186,0-0.377-0.006-0.574-0.017c-0.197-0.012-0.377-0.028-0.535-0.051V56.946z
			 M97.218,53.073c0.23,0.015,0.459,0.02,0.684,0.02c1.16,0,2.034-0.201,2.621-0.602c0.586-0.4,0.881-1.045,0.881-1.938
			c0-0.364-0.073-0.709-0.218-1.028c-0.146-0.319-0.366-0.597-0.663-0.831c-0.297-0.235-0.672-0.421-1.127-0.558
			c-0.455-0.138-1-0.207-1.633-0.207c-0.225,0-0.424,0.008-0.594,0.027c-0.172,0.018-0.369,0.037-0.594,0.06
			c-0.027,0.812-0.049,1.635-0.068,2.47c-0.021,0.834-0.031,1.68-0.031,2.537C96.741,53.046,96.988,53.062,97.218,53.073z"/>
		<path fill="#231F20" d="M109.12,54.916l-0.692,1.582c-0.105,0.229-0.182,0.435-0.228,0.61c-0.046,0.18-0.069,0.364-0.069,0.561
			c0,0.274,0.113,0.471,0.336,0.585c0.225,0.115,0.541,0.171,0.95,0.171v0.481h-4.076v-0.481c0.212,0,0.406-0.042,0.584-0.129
			s0.356-0.227,0.534-0.42c0.179-0.196,0.356-0.445,0.534-0.75c0.179-0.303,0.372-0.678,0.584-1.126l4.095-8.896h0.713l4.592,9.859
			c0.158,0.334,0.303,0.597,0.434,0.793c0.132,0.193,0.258,0.342,0.377,0.437c0.119,0.098,0.24,0.162,0.365,0.19
			c0.126,0.028,0.26,0.042,0.406,0.042v0.481h-4.908v-0.481c0.543,0,0.925-0.045,1.148-0.137c0.225-0.093,0.336-0.235,0.336-0.432
			c0-0.09-0.032-0.222-0.098-0.395l-1.129-2.546H109.12z M113.63,54.261l-1.266-2.819c-0.197-0.438-0.365-0.823-0.504-1.162
			s-0.268-0.676-0.387-1.006c-0.145,0.4-0.279,0.762-0.406,1.084c-0.124,0.319-0.266,0.663-0.424,1.03l-1.247,2.873H113.63z"/>
		<path fill="#231F20" d="M122.296,56.946c0,0.597,0.061,0.991,0.18,1.188c0.117,0.193,0.328,0.291,0.633,0.291h0.514v0.481h-4.273
			v-0.481h0.197c0.304,0,0.516-0.098,0.633-0.291c0.119-0.196,0.18-0.591,0.18-1.188v-7.743c0-0.596-0.061-0.991-0.18-1.187
			c-0.117-0.196-0.329-0.292-0.633-0.292h-0.197v-0.481h4.887c0.871,0,1.625,0.081,2.266,0.249c0.639,0.166,1.17,0.403,1.593,0.715
			c0.421,0.308,0.737,0.68,0.949,1.117c0.212,0.437,0.316,0.918,0.316,1.444c0,0.482-0.122,0.93-0.365,1.342
			c-0.245,0.414-0.581,0.77-1.01,1.066c-0.429,0.3-0.937,0.535-1.523,0.706c-0.587,0.174-1.23,0.258-1.929,0.258
			c-0.355,0-0.723-0.022-1.098-0.067c-0.377-0.048-0.756-0.12-1.139-0.224V56.946z M123.781,53.521c0.422,0,0.834-0.042,1.236-0.129
			c0.402-0.084,0.759-0.229,1.069-0.437c0.31-0.204,0.56-0.484,0.752-0.84c0.19-0.356,0.286-0.807,0.286-1.355
			c0-0.4-0.066-0.773-0.198-1.114c-0.132-0.345-0.34-0.645-0.623-0.902c-0.284-0.258-0.646-0.456-1.088-0.599
			c-0.442-0.144-0.979-0.216-1.612-0.216c-0.409,0-0.811,0.036-1.207,0.104c-0.027,0.882-0.049,1.767-0.068,2.66
			c-0.021,0.891-0.031,1.789-0.031,2.691C122.797,53.477,123.292,53.521,123.781,53.521z"/>
		<path fill="#231F20" d="M141.884,56.946c0,0.597,0.059,0.991,0.178,1.188c0.119,0.193,0.33,0.291,0.633,0.291h0.199v0.481h-3.957
			v-0.481h0.197c0.303,0,0.514-0.098,0.633-0.291c0.119-0.196,0.178-0.591,0.178-1.188V53.23h-6.153v3.716
			c0,0.597,0.06,0.991,0.179,1.188c0.118,0.193,0.33,0.291,0.633,0.291h0.197v0.481h-3.956v-0.481h0.197
			c0.304,0,0.515-0.098,0.633-0.291c0.119-0.196,0.179-0.591,0.179-1.188v-7.743c0-0.596-0.06-0.991-0.179-1.187
			c-0.118-0.196-0.329-0.292-0.633-0.292h-0.197v-0.481h4.017v0.481h-0.198c-0.304,0-0.511,0.096-0.624,0.292
			c-0.111,0.195-0.174,0.591-0.188,1.187c-0.014,0.574-0.023,1.141-0.029,1.694c-0.006,0.558-0.01,1.117-0.01,1.678h6.133v-3.372
			c0-0.596-0.059-0.991-0.178-1.187c-0.119-0.196-0.33-0.292-0.633-0.292h-0.197v-0.481h4.016v0.481h-0.197
			c-0.305,0-0.512,0.096-0.623,0.292c-0.112,0.195-0.176,0.591-0.189,1.187C141.904,51.785,141.884,54.364,141.884,56.946z"/>
		<path fill="#231F20" d="M151.42,56.946c0,0.597,0.06,0.991,0.179,1.188c0.118,0.193,0.328,0.291,0.633,0.291h0.316v0.481h-4.195
			v-0.481h0.316c0.304,0,0.516-0.098,0.635-0.291c0.117-0.196,0.178-0.591,0.178-1.188v-2.822l-3.186-4.231
			c-0.502-0.689-0.947-1.221-1.336-1.602c-0.389-0.378-0.814-0.566-1.277-0.566v-0.481h4.928v0.481
			c-0.355,0.012-0.631,0.054-0.82,0.129c-0.192,0.073-0.287,0.202-0.287,0.387c0,0.196,0.117,0.459,0.355,0.793l3.205,4.197
			l2.85-3.94c0.224-0.333,0.336-0.607,0.336-0.826c0-0.24-0.112-0.425-0.336-0.551c-0.225-0.126-0.534-0.188-0.93-0.188v-0.481
			h4.056v0.481c-0.185,0-0.353,0.02-0.504,0.06c-0.153,0.042-0.318,0.123-0.496,0.249s-0.372,0.311-0.583,0.552
			c-0.211,0.24-0.469,0.568-0.771,0.979l-3.265,4.456V56.946z"/>
	</g>
</g>
</svg>
